<svg width="410" height="44" viewBox="0 0 410 44" fill="none" xmlns="http://www.w3.org/2000/svg">
<path d="M399.523 41.6084C393.522 41.6084 389.235 35.7786 389.235 27.6056C389.235 19.3753 393.522 13.5456 399.523 13.5456C405.524 13.5456 409.811 19.3753 409.811 27.6056C409.811 35.7786 405.524 41.6084 399.523 41.6084ZM394.093 27.7199C394.093 36.8074 395.637 40.4653 399.523 40.4653C403.41 40.4653 404.953 36.8074 404.953 27.7199V27.4912C404.953 18.8609 403.181 14.6887 399.523 14.6887C395.865 14.6887 394.093 18.8609 394.093 27.4912V27.7199Z" fill="black"/>
<path d="M369.463 41.1511V40.751C372.721 39.8937 373.75 37.8362 373.75 32.1207V22.576C373.75 18.5752 372.836 17.3178 369.463 16.5176V16.1175C372.321 15.7175 375.179 14.9744 377.808 13.5456L377.922 13.6027V18.2894C379.294 15.4888 381.694 13.5456 384.095 13.5456C386.038 13.5456 387.238 14.7458 387.238 16.6891C387.238 18.518 386.153 19.7754 384.667 19.7754C383.695 19.7754 382.723 19.2039 381.352 17.775L380.666 17.032C379.123 18.5752 377.922 21.4329 377.922 23.6619V32.1207C377.922 38.0076 379.008 39.9509 382.78 40.751V41.1511H369.463Z" fill="black"/>
<path d="M359.666 41.6084C353.55 41.6084 349.607 36.6931 349.607 29.0344C349.607 19.9469 353.665 13.5456 359.666 13.5456C364.81 13.5456 368.01 17.8322 368.01 24.805H353.665V26.0624C353.665 33.2638 356.465 37.6647 361.095 37.6647C363.895 37.6647 365.553 36.6931 367.61 33.8354L368.01 34.0068C366.467 39.3222 363.953 41.6084 359.666 41.6084ZM353.779 23.4904H363.838C363.838 17.4892 362.524 14.6887 359.666 14.6887C356.18 14.6887 354.179 17.7179 353.779 23.4904Z" fill="black"/>
<path d="M335.137 41.1511V40.751C338.395 39.8937 339.424 37.8361 339.424 32.1207V22.5759C339.424 18.5751 338.509 17.3177 335.137 16.5176V16.1175C338.052 15.7174 340.796 14.9744 343.482 13.5455L343.596 13.6027V32.1207C343.596 37.8361 344.625 39.8937 347.883 40.751V41.1511H335.137ZM337.881 4.68663C337.881 2.68623 339.424 1.14307 341.424 1.14307C343.425 1.14307 344.911 2.68623 344.911 4.68663C344.911 6.68703 343.425 8.17305 341.424 8.17305C339.424 8.17305 337.881 6.68703 337.881 4.68663Z" fill="black"/>
<path d="M325.34 41.6084C319.224 41.6084 315.281 36.6359 315.281 28.8629C315.281 19.8897 319.796 13.5456 326.197 13.5456C330.427 13.5456 333.684 16.2318 333.684 19.7754C333.684 21.09 333.056 21.833 332.027 21.833C330.198 21.833 328.769 19.4325 328.026 15.3174C327.512 15.0888 326.94 14.9745 326.197 14.9745C322.082 14.9745 319.339 19.9469 319.339 27.4341C319.339 33.8925 322.082 37.6647 326.769 37.6647C329.569 37.6647 331.227 36.6931 333.284 33.8354L333.684 34.0068C332.141 39.3222 329.626 41.6084 325.34 41.6084Z" fill="black"/>
<path d="M286.634 41.1511V40.751C289.892 39.8937 290.921 37.8362 290.921 32.1207V22.576C290.921 18.5752 290.007 17.3178 286.634 16.5176V16.1175C289.492 15.7175 292.35 14.9744 294.979 13.5456L295.093 13.6027V16.9177C297.379 14.803 300.351 13.5456 303.266 13.5456C307.61 13.5456 309.553 15.6603 309.553 20.4041V32.1207C309.553 37.8362 310.582 39.8937 313.84 40.751V41.1511H286.634ZM295.093 33.321C295.093 38.8078 296.293 40.5224 300.237 40.5224C304.181 40.5224 305.381 38.8078 305.381 33.321V20.4041C305.381 17.3749 304.009 15.9461 300.98 15.9461C297.551 15.9461 295.093 18.3466 295.093 21.6615V33.321Z" fill="black"/>
<path d="M269.898 41.6084C266.412 41.6084 264.125 39.7223 264.125 36.8074C264.125 33.6639 265.897 31.2634 270.584 28.1771L276.985 24.0048V19.4325C276.985 16.6319 276.128 15.6031 273.613 15.6031C272.641 15.6031 271.555 15.8318 270.527 16.2318C270.241 20.2898 268.126 23.9477 265.897 23.9477C264.983 23.9477 264.411 23.2618 264.411 22.233C264.411 18.2322 270.355 13.5456 275.442 13.5456C279.614 13.5456 281.157 15.2602 281.157 19.8897V36.4073C281.157 37.8362 281.557 38.4649 282.472 38.4649C283.501 38.4649 284.415 37.5504 285.387 35.6072L285.787 35.7786C284.815 40.0652 283.558 41.6084 281.157 41.6084C279.157 41.6084 277.614 40.008 277.099 37.5504C275.785 39.8937 272.927 41.6084 269.898 41.6084ZM268.698 35.2071C268.698 37.5504 269.784 38.6935 271.898 38.6935C275.042 38.6935 276.985 36.6931 276.985 33.3781V25.548L274.699 27.1483C270.184 30.349 268.698 32.3494 268.698 35.2071Z" fill="black"/>
<path d="M234.336 41.1511V40.751C237.594 39.8937 238.623 37.8362 238.623 32.1207V22.576C238.623 18.5752 237.708 17.3178 234.336 16.5176V16.1175C237.194 15.7175 240.051 14.9744 242.681 13.5456L242.795 13.6027V16.9177C245.081 14.803 248.053 13.5456 250.968 13.5456C255.312 13.5456 257.255 15.6603 257.255 20.4041V32.1207C257.255 37.8362 258.284 39.8937 261.541 40.751V41.1511H234.336ZM242.795 33.321C242.795 38.8078 243.995 40.5224 247.939 40.5224C251.882 40.5224 253.083 38.8078 253.083 33.321V20.4041C253.083 17.3749 251.711 15.9461 248.682 15.9461C245.252 15.9461 242.795 18.3466 242.795 21.6615V33.321Z" fill="black"/>
<path d="M220.438 41.1511V40.751C223.696 39.8937 224.725 37.8361 224.725 32.1207V22.5759C224.725 18.5751 223.81 17.3177 220.438 16.5176V16.1175C223.353 15.7174 226.096 14.9744 228.783 13.5455L228.897 13.6027V32.1207C228.897 37.8361 229.926 39.8937 233.184 40.751V41.1511H220.438ZM223.182 4.68663C223.182 2.68623 224.725 1.14307 226.725 1.14307C228.725 1.14307 230.212 2.68623 230.212 4.68663C230.212 6.68703 228.725 8.17305 226.725 8.17305C224.725 8.17305 223.182 6.68703 223.182 4.68663Z" fill="black"/>
<path d="M195 41.1511V40.751C198.486 39.8937 199.572 37.8361 199.572 32.1207V10.1735C199.572 4.45804 198.486 2.40048 195 1.54317V1.14308H209.003C212.203 1.14308 214.89 0.80016 216.89 0L217.004 0.0571532L218.147 11.2022L217.747 11.2594C215.461 4.91527 213.175 2.6291 209.003 2.6291H203.859V19.3753H213.689V20.8613H203.859V32.1207C203.859 38.0076 205.002 39.8937 209.003 40.751V41.1511H195Z" fill="black"/>
<path d="M125.187 41.6084C121.701 41.6084 119.415 39.7223 119.415 36.8074C119.415 33.6639 121.186 31.2634 125.873 28.1771L132.274 24.0048V19.4325C132.274 16.6319 131.417 15.6031 128.902 15.6031C127.931 15.6031 126.845 15.8318 125.816 16.2318C125.53 20.2898 123.415 23.9477 121.186 23.9477C120.272 23.9477 119.7 23.2618 119.7 22.233C119.7 18.2322 125.644 13.5456 130.731 13.5456C134.903 13.5456 136.447 15.2602 136.447 19.8897V36.4073C136.447 37.8362 136.847 38.4649 137.761 38.4649C138.79 38.4649 139.704 37.5504 140.676 35.6072L141.076 35.7786C140.104 40.0652 138.847 41.6084 136.447 41.6084C134.446 41.6084 132.903 40.008 132.389 37.5504C131.074 39.8937 128.216 41.6084 125.187 41.6084ZM123.987 35.2071C123.987 37.5504 125.073 38.6935 127.188 38.6935C130.331 38.6935 132.274 36.6931 132.274 33.3781V25.548L129.988 27.1483C125.473 30.349 123.987 32.3494 123.987 35.2071Z" fill="black"/>
<path d="M75.1691 41.1511V40.751C78.4269 39.8937 79.4556 37.8362 79.4556 32.1207V22.576C79.4556 18.5752 78.5412 17.3178 75.1691 16.5176V16.1175C78.0268 15.7175 80.8845 14.9744 83.5136 13.5456L83.6279 13.6027V16.9177C85.9141 14.803 88.8861 13.5456 91.801 13.5456C95.0588 13.5456 96.9449 14.7458 97.6879 17.2606C100.031 14.9744 103.175 13.5456 106.261 13.5456C110.605 13.5456 112.548 15.6603 112.548 20.4041V32.1207C112.548 37.8362 113.577 39.8937 116.835 40.751V41.1511H75.1691ZM83.6279 33.321C83.6279 38.8078 84.8281 40.5224 88.7718 40.5224C92.7154 40.5224 93.9157 38.8078 93.9157 33.321V20.4041C93.9157 17.3749 92.544 15.9461 89.5148 15.9461C86.0855 15.9461 83.6279 18.3466 83.6279 21.6615V33.321ZM98.0879 33.321C98.0879 38.8078 99.2882 40.5224 103.232 40.5224C107.175 40.5224 108.376 38.8078 108.376 33.321V20.4041C108.376 17.3749 107.004 15.9461 103.975 15.9461C100.546 15.9461 98.0879 18.3466 98.0879 21.6615V33.321Z" fill="black"/>
<path d="M55.1316 41.1511V40.751C58.3894 39.8937 59.4182 37.8362 59.4182 32.1207V22.576C59.4182 18.5752 58.5037 17.3178 55.1316 16.5176V16.1175C57.9893 15.7175 60.847 14.9744 63.4761 13.5456L63.5904 13.6027V18.2894C64.9621 15.4888 67.3626 13.5456 69.7631 13.5456C71.7063 13.5456 72.9066 14.7458 72.9066 16.6891C72.9066 18.518 71.8206 19.7754 70.3346 19.7754C69.363 19.7754 68.3914 19.2039 67.0197 17.775L66.3338 17.032C64.7907 18.5752 63.5904 21.4329 63.5904 23.6619V32.1207C63.5904 38.0076 64.6763 39.9509 68.4485 40.751V41.1511H55.1316Z" fill="black"/>
<path d="M38.3952 41.6084C34.9088 41.6084 32.6226 39.7223 32.6226 36.8074C32.6226 33.6639 34.3944 31.2634 39.0811 28.1771L45.4823 24.0048V19.4325C45.4823 16.6319 44.625 15.6031 42.1102 15.6031C41.1386 15.6031 40.0527 15.8318 39.0239 16.2318C38.7381 20.2898 36.6234 23.9477 34.3944 23.9477C33.4799 23.9477 32.9084 23.2618 32.9084 22.233C32.9084 18.2322 38.8524 13.5456 43.9392 13.5456C48.1114 13.5456 49.6546 15.2602 49.6546 19.8897V36.4073C49.6546 37.8362 50.0547 38.4649 50.9691 38.4649C51.9979 38.4649 52.9124 37.5504 53.884 35.6072L54.2841 35.7786C53.3125 40.0652 52.0551 41.6084 49.6546 41.6084C47.6542 41.6084 46.111 40.008 45.5966 37.5504C44.2821 39.8937 41.4244 41.6084 38.3952 41.6084ZM37.195 35.2071C37.195 37.5504 38.2809 38.6935 40.3956 38.6935C43.5391 38.6935 45.4823 36.6931 45.4823 33.3781V25.548L43.1962 27.1483C38.681 30.349 37.195 32.3494 37.195 35.2071Z" fill="black"/>
<path d="M0 41.1511V40.751C3.48641 39.8937 4.57234 37.8361 4.57234 32.1207V10.1734C4.57234 4.45802 3.48641 2.40046 0 1.54315V1.14307H13.4313V1.54315C9.94485 2.40046 8.85892 4.45802 8.85892 10.1734V20.6327L20.4041 5.71541C21.0328 4.8581 21.2614 4.17225 21.2614 3.65786C21.2614 2.62908 20.2898 2.11469 17.2034 1.54315V1.14307H29.4916V1.54315C26.0624 2.17184 23.8333 3.94363 21.8901 6.34411L14.803 15.3173L24.7478 35.0927C26.7482 39.0935 28.6915 40.4081 30.0632 40.751V41.1511H18.1751V40.751C20.1755 40.1795 21.1471 39.265 21.1471 37.9504C21.1471 37.0931 20.747 36.293 20.2326 35.3213L12.0596 18.8037L8.85892 22.8045V32.1207C8.85892 37.8361 9.94485 39.8937 13.4313 40.751V41.1511H0Z" fill="black"/>
<path d="M185 2.45587L171.895 22.6697L182.929 41.9979L180.696 43.2723L168.887 22.5858L182.843 1.05841L185 2.45587ZM175.315 2.26251L166.594 22.658L173.945 42.1824L171.54 43.0877L163.824 22.5975L172.952 1.25177L175.315 2.26251ZM167.491 2.10919L161.646 22.6483L166.576 42.3231L164.083 42.9481L158.985 22.6072L165.019 1.40509L167.491 2.10919ZM157.57 42.6346H155V1.18146H157.57V42.6346Z" fill="black"/>
</svg>
